<svg xmlns="http://www.w3.org/2000/svg" width="512" height="512" viewBox="0 0 512 512">
  <defs>
    <linearGradient id="grad" x1="0%" y1="0%" x2="100%" y2="100%">
      <stop offset="0%" style="stop-color:#6366f1"/>
      <stop offset="100%" style="stop-color:#4f46e5"/>
    </linearGradient>
  </defs>
  <rect width="512" height="512" rx="100" fill="url(#grad)"/>
  <g transform="translate(130, 160)" fill="white">
    <!-- Bus Icon -->
    <path d="M0 80 L0 160 L40 160 L40 200 L70 200 L70 160 L182 160 L182 200 L212 200 L212 160 L252 160 L252 80 L240 40 C235 20 220 0 180 0 L72 0 C32 0 17 20 12 40 L0 80Z"/>
    <rect x="30" y="50" width="80" height="50" rx="10" fill="#6366f1"/>
    <rect x="142" y="50" width="80" height="50" rx="10" fill="#6366f1"/>
    <circle cx="55" cy="140" r="25" fill="#6366f1"/>
    <circle cx="197" cy="140" r="25" fill="#6366f1"/>
  </g>
</svg>
